<svg version="1.1" xmlns="http://www.w3.org/2000/svg" xmlns:xlink="http://www.w3.org/1999/xlink" width="20.61302" height="20.61302" viewBox="0,0,20.61302,20.61302"><g transform="translate(-229.69349,-169.69349)"><g data-paper-data="{&quot;isPaintingLayer&quot;:true}" fill-rule="nonzero" stroke-linecap="butt" stroke-linejoin="miter" stroke-miterlimit="10" stroke-dasharray="" stroke-dashoffset="0" style="mix-blend-mode: normal"><path d="M237.57097,179.67895c0,-1.38071 1.11929,-2.5 2.5,-2.5c1.38071,0 2.5,1.11929 2.5,2.5c0,1.38071 -1.11929,2.5 -2.5,2.5c-1.38071,0 -2.5,-1.11929 -2.5,-2.5z" fill="#9966ff" stroke="none" stroke-width="0.5"/><path d="M237.57097,179.67895c0,-1.38071 1.11929,-2.5 2.5,-2.5c1.38071,0 2.5,1.11929 2.5,2.5c0,1.38071 -1.11929,2.5 -2.5,2.5c-1.38071,0 -2.5,-1.11929 -2.5,-2.5z" fill="#000000" stroke="none" stroke-width="0.5"/><path d="M230.69349,180c0,-5.13984 4.16667,-9.30651 9.30651,-9.30651c5.13984,0 9.30651,4.16667 9.30651,9.30651c0,5.13984 -4.16667,9.30651 -9.30651,9.30651c-5.13984,0 -9.30651,-4.16667 -9.30651,-9.30651z" fill="#000000" stroke="#000000" stroke-width="2"/></g></g></svg>